<?xml version="1.0" encoding="UTF-8" standalone="yes"?><svg xmlns="http://www.w3.org/2000/svg" xmlns:xlink="http://www.w3.org/1999/xlink" height="661px" style="width:796px;height:661px;" version="1.1" viewBox="0 0 796 661" width="796px"><defs><filter height="300%" id="f1" width="300%" x="-1" y="-1"><feGaussianBlur result="blurOut" stdDeviation="2.0"/><feColorMatrix in="blurOut" result="blurOut2" type="matrix" values="0 0 0 0 0 0 0 0 0 0 0 0 0 0 0 0 0 0 .4 0"/><feOffset dx="4.0" dy="4.0" in="blurOut2" result="blurOut3"/><feBlend in="SourceGraphic" in2="blurOut3" mode="normal"/></filter></defs><g><text fill="#000000" font-family="sans-serif" font-size="14" font-weight="bold" lengthAdjust="spacingAndGlyphs" textLength="104" x="347.5" y="24.5332">ExampleFlow 1</text><text fill="#000000" font-family="sans-serif" font-size="14" font-weight="bold" lengthAdjust="spacingAndGlyphs" textLength="35" x="382" y="42.1426">(IOU)</text><line style="stroke: #A80036; stroke-width: 1.0;" x1="141" x2="141" y1="88.8281" y2="472.3438"/><line style="stroke: #A80036; stroke-width: 1.0; stroke-dasharray: 1.0,4.0;" x1="141" x2="141" y1="472.3438" y2="500.3438"/><line style="stroke: #A80036; stroke-width: 1.0;" x1="141" x2="141" y1="500.3438" y2="621.3984"/><line style="stroke: #A80036; stroke-width: 1.0;" x1="473" x2="473" y1="88.8281" y2="472.3438"/><line style="stroke: #A80036; stroke-width: 1.0; stroke-dasharray: 1.0,4.0;" x1="473" x2="473" y1="472.3438" y2="500.3438"/><line style="stroke: #A80036; stroke-width: 1.0;" x1="473" x2="473" y1="500.3438" y2="621.3984"/><line style="stroke: #A80036; stroke-width: 1.0;" x1="731.5" x2="731.5" y1="88.8281" y2="472.3438"/><line style="stroke: #A80036; stroke-width: 1.0; stroke-dasharray: 1.0,4.0;" x1="731.5" x2="731.5" y1="472.3438" y2="500.3438"/><line style="stroke: #A80036; stroke-width: 1.0;" x1="731.5" x2="731.5" y1="500.3438" y2="621.3984"/><rect fill="#FEFECE" filter="url(#f1)" height="31.6094" style="stroke: #A80036; stroke-width: 1.5;" width="60" x="109" y="52.2188"/><text fill="#000000" font-family="sans-serif" font-size="14" lengthAdjust="spacingAndGlyphs" textLength="46" x="116" y="73.752">Initiator</text><rect fill="#FEFECE" filter="url(#f1)" height="31.6094" style="stroke: #A80036; stroke-width: 1.5;" width="60" x="109" y="620.3984"/><text fill="#000000" font-family="sans-serif" font-size="14" lengthAdjust="spacingAndGlyphs" textLength="46" x="116" y="641.9316">Initiator</text><rect fill="#FEFECE" filter="url(#f1)" height="31.6094" style="stroke: #A80036; stroke-width: 1.5;" width="70" x="436" y="52.2188"/><text fill="#000000" font-family="sans-serif" font-size="14" lengthAdjust="spacingAndGlyphs" textLength="56" x="443" y="73.752">Acceptor</text><rect fill="#FEFECE" filter="url(#f1)" height="31.6094" style="stroke: #A80036; stroke-width: 1.5;" width="70" x="436" y="620.3984"/><text fill="#000000" font-family="sans-serif" font-size="14" lengthAdjust="spacingAndGlyphs" textLength="56" x="443" y="641.9316">Acceptor</text><rect fill="#FEFECE" filter="url(#f1)" height="31.6094" style="stroke: #A80036; stroke-width: 1.5;" width="55" x="702.5" y="52.2188"/><text fill="#000000" font-family="sans-serif" font-size="14" lengthAdjust="spacingAndGlyphs" textLength="41" x="709.5" y="73.752">Notary</text><rect fill="#FEFECE" filter="url(#f1)" height="31.6094" style="stroke: #A80036; stroke-width: 1.5;" width="55" x="702.5" y="620.3984"/><text fill="#000000" font-family="sans-serif" font-size="14" lengthAdjust="spacingAndGlyphs" textLength="41" x="709.5" y="641.9316">Notary</text><polygon fill="#FBFB77" filter="url(#f1)" points="8,103.8281,8,129.8281,270,129.8281,270,113.8281,260,103.8281,8,103.8281" style="stroke: #A80036; stroke-width: 1.0;"/><line style="stroke: #A80036; stroke-width: 1.0;" x1="260" x2="260" y1="103.8281" y2="113.8281"/><line style="stroke: #A80036; stroke-width: 1.0;" x1="270" x2="260" y1="113.8281" y2="113.8281"/><text fill="#000000" font-family="sans-serif" font-size="13" lengthAdjust="spacingAndGlyphs" textLength="241" x="14" y="122.3232">Generating transaction based on new IOU</text><polygon fill="#FBFB77" filter="url(#f1)" points="42,144.1797,42,170.1797,236,170.1797,236,154.1797,226,144.1797,42,144.1797" style="stroke: #A80036; stroke-width: 1.0;"/><line style="stroke: #A80036; stroke-width: 1.0;" x1="226" x2="226" y1="144.1797" y2="154.1797"/><line style="stroke: #A80036; stroke-width: 1.0;" x1="236" x2="226" y1="154.1797" y2="154.1797"/><text fill="#000000" font-family="sans-serif" font-size="13" lengthAdjust="spacingAndGlyphs" textLength="173" x="48" y="162.6748">Verifying contract constraints.</text><polygon fill="#FBFB77" filter="url(#f1)" points="26,184.5313,26,210.5313,251,210.5313,251,194.5313,241,184.5313,26,184.5313" style="stroke: #A80036; stroke-width: 1.0;"/><line style="stroke: #A80036; stroke-width: 1.0;" x1="241" x2="241" y1="184.5313" y2="194.5313"/><line style="stroke: #A80036; stroke-width: 1.0;" x1="251" x2="241" y1="194.5313" y2="194.5313"/><text fill="#000000" font-family="sans-serif" font-size="13" lengthAdjust="spacingAndGlyphs" textLength="204" x="32" y="203.0264">Signing transaction with private key</text><polygon fill="#A80036" points="461,237.8828,471,241.8828,461,245.8828,465,241.8828" style="stroke: #A80036; stroke-width: 1.0;"/><line style="stroke: #A80036; stroke-width: 1.0;" x1="141" x2="467" y1="241.8828" y2="241.8828"/><text fill="#000000" font-family="sans-serif" font-size="13" font-weight="bold" lengthAdjust="spacingAndGlyphs" textLength="7" x="148" y="237.3779">1</text><text fill="#000000" font-family="sans-serif" font-size="13" lengthAdjust="spacingAndGlyphs" textLength="297" x="159" y="237.3779">Sending proposed transaction to recipient for review</text><polygon fill="#FBFB77" filter="url(#f1)" points="334,255.2344,334,281.2344,607,281.2344,607,265.2344,597,255.2344,334,255.2344" style="stroke: #A80036; stroke-width: 1.0;"/><line style="stroke: #A80036; stroke-width: 1.0;" x1="597" x2="597" y1="255.2344" y2="265.2344"/><line style="stroke: #A80036; stroke-width: 1.0;" x1="607" x2="597" y1="265.2344" y2="265.2344"/><text fill="#000000" font-family="sans-serif" font-size="13" lengthAdjust="spacingAndGlyphs" textLength="252" x="340" y="273.7295">Receiving proposed transaction from sender</text><polygon fill="#FBFB77" filter="url(#f1)" points="331,295.5859,331,321.5859,610,321.5859,610,305.5859,600,295.5859,331,295.5859" style="stroke: #A80036; stroke-width: 1.0;"/><line style="stroke: #A80036; stroke-width: 1.0;" x1="600" x2="600" y1="295.5859" y2="305.5859"/><line style="stroke: #A80036; stroke-width: 1.0;" x1="610" x2="600" y1="305.5859" y2="305.5859"/><text fill="#000000" font-family="sans-serif" font-size="13" lengthAdjust="spacingAndGlyphs" textLength="258" x="337" y="314.0811">Verifying signatures and contract constraints</text><polygon fill="#FBFB77" filter="url(#f1)" points="319,335.9375,319,361.9375,623,361.9375,623,345.9375,613,335.9375,319,335.9375" style="stroke: #A80036; stroke-width: 1.0;"/><line style="stroke: #A80036; stroke-width: 1.0;" x1="613" x2="613" y1="335.9375" y2="345.9375"/><line style="stroke: #A80036; stroke-width: 1.0;" x1="623" x2="613" y1="345.9375" y2="345.9375"/><text fill="#000000" font-family="sans-serif" font-size="13" lengthAdjust="spacingAndGlyphs" textLength="283" x="325" y="354.4326">Signing proposed transaction with our private key</text><polygon fill="#A80036" points="720,389.2891,730,393.2891,720,397.2891,724,393.2891" style="stroke: #A80036; stroke-width: 1.0;"/><line style="stroke: #A80036; stroke-width: 1.0;" x1="473" x2="726" y1="393.2891" y2="393.2891"/><text fill="#000000" font-family="sans-serif" font-size="13" font-weight="bold" lengthAdjust="spacingAndGlyphs" textLength="7" x="480" y="388.7842">2</text><text fill="#000000" font-family="sans-serif" font-size="13" lengthAdjust="spacingAndGlyphs" textLength="224" x="491" y="388.7842">Requesting signature by notary service</text><polygon fill="#FBFB77" filter="url(#f1)" points="672,406.6406,672,432.6406,787,432.6406,787,416.6406,777,406.6406,672,406.6406" style="stroke: #A80036; stroke-width: 1.0;"/><line style="stroke: #A80036; stroke-width: 1.0;" x1="777" x2="777" y1="406.6406" y2="416.6406"/><line style="stroke: #A80036; stroke-width: 1.0;" x1="787" x2="777" y1="416.6406" y2="416.6406"/><text fill="#000000" font-family="sans-serif" font-size="13" lengthAdjust="spacingAndGlyphs" textLength="94" x="678" y="425.1357">Sign transaction</text><polygon fill="#A80036" points="484,459.9922,474,463.9922,484,467.9922,480,463.9922" style="stroke: #A80036; stroke-width: 1.0;"/><line style="stroke: #A80036; stroke-width: 1.0;" x1="478" x2="731" y1="463.9922" y2="463.9922"/><text fill="#000000" font-family="sans-serif" font-size="13" font-weight="bold" lengthAdjust="spacingAndGlyphs" textLength="7" x="490" y="459.4873">3</text><text fill="#000000" font-family="sans-serif" font-size="13" lengthAdjust="spacingAndGlyphs" textLength="155" x="501" y="459.4873">Receive signed transaction</text><polygon fill="#FBFB77" filter="url(#f1)" points="406,505.3438,406,531.3438,536,531.3438,536,515.3438,526,505.3438,406,505.3438" style="stroke: #A80036; stroke-width: 1.0;"/><line style="stroke: #A80036; stroke-width: 1.0;" x1="526" x2="526" y1="505.3438" y2="515.3438"/><line style="stroke: #A80036; stroke-width: 1.0;" x1="536" x2="526" y1="515.3438" y2="515.3438"/><text fill="#000000" font-family="sans-serif" font-size="13" lengthAdjust="spacingAndGlyphs" textLength="109" x="412" y="523.8389">Record transaction</text><polygon fill="#A80036" points="152,558.6953,142,562.6953,152,566.6953,148,562.6953" style="stroke: #A80036; stroke-width: 1.0;"/><line style="stroke: #A80036; stroke-width: 1.0;" x1="146" x2="472" y1="562.6953" y2="562.6953"/><text fill="#000000" font-family="sans-serif" font-size="13" font-weight="bold" lengthAdjust="spacingAndGlyphs" textLength="7" x="158" y="558.1904">4</text><text fill="#000000" font-family="sans-serif" font-size="13" lengthAdjust="spacingAndGlyphs" textLength="230" x="169" y="558.1904">Broadcasting transaction to participants</text><polygon fill="#FBFB77" filter="url(#f1)" points="74,576.0469,74,602.0469,204,602.0469,204,586.0469,194,576.0469,74,576.0469" style="stroke: #A80036; stroke-width: 1.0;"/><line style="stroke: #A80036; stroke-width: 1.0;" x1="194" x2="194" y1="576.0469" y2="586.0469"/><line style="stroke: #A80036; stroke-width: 1.0;" x1="204" x2="194" y1="586.0469" y2="586.0469"/><text fill="#000000" font-family="sans-serif" font-size="13" lengthAdjust="spacingAndGlyphs" textLength="109" x="80" y="594.542">Record transaction</text></g></svg>